<?xml version="1.0" standalone="no"?>
<!DOCTYPE svg PUBLIC "-//W3C//DTD SVG 1.1//EN" "http://www.w3.org/Graphics/SVG/1.1/DTD/svg11.dtd">
<svg xmlns:dc="http://purl.org/dc/elements/1.1/" xmlns:cc="http://creativecommons.org/ns#" xmlns:rdf="http://www.w3.org/1999/02/22-rdf-syntax-ns#" xmlns:svg="http://www.w3.org/2000/svg" xmlns="http://www.w3.org/2000/svg" xmlns:sodipodi="http://sodipodi.sourceforge.net/DTD/sodipodi-0.dtd" xmlns:inkscape="http://www.inkscape.org/namespaces/inkscape" version="1.1" id="Livello_1" x="0px" y="0px" width="230px" height="82px" viewBox="0 0 595.28 841.89" enable-background="new 0 0 595.28 841.89" xml:space="preserve" inkscape:version="0.48.2 r9819" sodipodi:docname="logo.svg"><metadata id="metadata67"><rdf:rdf><cc:work rdf:about=""><dc:format>image/svg+xml</dc:format><dc:type rdf:resource="http://purl.org/dc/dcmitype/StillImage"></dc:type></cc:work></rdf:rdf></metadata><defs id="defs65"></defs><sodipodi:namedview pagecolor="#ffffff" bordercolor="#666666" borderopacity="1" objecttolerance="10" gridtolerance="10" guidetolerance="10" inkscape:pageopacity="0" inkscape:pageshadow="2" inkscape:window-width="640" inkscape:window-height="480" id="namedview63" showgrid="false" inkscape:zoom="1.8391304" inkscape:cx="115" inkscape:cy="41" inkscape:window-x="0" inkscape:window-y="0" inkscape:window-maximized="0" inkscape:current-layer="Livello_1"></sodipodi:namedview>
<g id="g3" transform="matrix(5.4978092,0,0,5.4978092,-1286.9806,-103.22328)">
	<path d="m 423.189,41.784 c 0,0 3.849,-17.935 -17.395,-15.992 0,0 -14.726,1.365 -18.703,16.515 0,0 -3.989,15.958 12.822,17.523 0,0 10.091,1.179 16.708,-5.444 5.169,-4.18 6.568,-12.602 6.568,-12.602" id="path5" inkscape:connector-curvature="0" style="fill:#012f5f"></path>
	<path d="m 386.687,69.085 c 10.03,17.024 34.766,-6.009 34.766,-6.009 8.005,-7.427 10.27,-10.45 10.27,-10.45 8.888,-9.995 8.63,-18.006 8.63,-18.006 -0.215,-3.956 -0.976,-5.788 -0.976,-5.788 0,0 -1.553,-3.21 -1.982,-3.4 h 3.517 l 0.675,2.578 0.816,3.425 0.412,2.529 c 0,0 2.215,13.65 -1.504,24.03 0,0 -6.421,23.634 -28.874,24.933 0,0 -13.657,1.093 -23.993,-8.385 -0.669,-0.602 -1.111,-1.473 -1.756,-2.16" id="path7" inkscape:connector-curvature="0" style="fill:#012f5f"></path>
	<path d="m 428.303,167.834 c 9.065,-11.055 10.767,-26.676 10.767,-26.676 2.136,-17.807 -4.193,-30.93 -4.193,-30.93 C 415.426,67.701 386.688,86.032 386.688,86.032 v 3.164 c 0,0 7.151,-4.766 15.646,1.17 0,0 10.594,6.653 18.887,25.884 l 2.75,6.936 c 0,0 5.85,14.866 5.162,30.212 0,0 -0.437,12.015 -8.152,14.394" id="path9" inkscape:connector-curvature="0" style="fill:#012f5f"></path>
	<path d="m 453.579,118.749 c -4.131,-18.187 -3.818,-22.386 -3.818,-42.5 0.768,-8.875 2.075,-14.854 2.075,-14.854 3.817,-16.745 10.797,-25.682 17.125,-30.451 7.813,-4.247 13.534,-5.469 13.534,-5.469 h -10.25 c 0,0 -22.576,6.617 -33.348,38.903 0,0 -6.679,17.303 -3.579,43.211 0,0 4.984,49.338 43.825,60.092 h 8.06 v -1.326 c -25.344,-7.273 -33.624,-47.606 -33.624,-47.606" id="path11" inkscape:connector-curvature="0" style="fill:#012f5f"></path>
	<path d="m 113.826,131.958 c -0.141,0.479 -0.372,1.147 -0.703,2.001 -0.442,0.896 -1.081,1.835 -1.924,2.817 -0.816,0.988 -2.02,1.799 -3.606,2.431 -1.519,0.676 -3.508,1.037 -5.957,1.08 -1.823,0 -3.689,-0.294 -5.61,-0.884 -1.891,-0.552 -3.677,-1.405 -5.355,-2.565 -1.59,-1.203 -2.909,-2.769 -3.962,-4.702 -1.099,-1.97 -1.642,-4.327 -1.642,-7.064 0.043,-4.493 1.694,-8.176 4.938,-11.049 3.176,-2.909 7.102,-4.389 11.773,-4.432 2.777,0 5.392,0.577 7.844,1.737 2.431,1.203 3.689,3.174 3.784,5.911 0,0.945 -0.31,1.706 -0.936,2.302 -0.602,0.632 -1.51,0.951 -2.731,0.951 -0.81,0 -1.571,-0.19 -2.28,-0.564 -0.767,-0.301 -1.148,-0.865 -1.148,-1.676 0,-0.725 0.203,-1.516 0.599,-2.369 0.227,-0.859 0.368,-1.578 0.417,-2.148 -0.049,-1.074 -0.595,-1.885 -1.639,-2.437 -1.046,-0.528 -2.308,-0.786 -3.796,-0.786 -0.994,0 -2.041,0.086 -3.133,0.258 -1.136,0.271 -2.179,0.891 -3.137,1.885 -0.951,0.981 -1.706,2.467 -2.265,4.443 -0.626,2.02 -0.939,4.745 -0.939,8.17 -0.046,3.953 0.565,7.262 1.842,9.919 0.718,1.252 1.691,2.265 2.918,3.026 1.182,0.773 2.722,1.154 4.628,1.154 2.13,0 3.864,-0.313 5.208,-0.952 1.369,-0.57 2.431,-1.264 3.198,-2.08 0.764,-0.854 1.354,-1.688 1.771,-2.499 0.442,-0.859 0.709,-1.55 0.801,-2.08 l 1.042,0.202 z" id="path13" inkscape:connector-curvature="0" style="fill:#012f5f"></path>
	<path d="m 151.531,138.661 c -0.586,0.398 -1.301,0.761 -2.167,1.093 -0.884,0.355 -1.958,0.533 -3.21,0.533 -2.207,-0.043 -3.831,-0.527 -4.868,-1.461 -1.031,-0.89 -1.734,-2.13 -2.099,-3.734 h -0.172 c -0.138,0.393 -0.375,0.862 -0.697,1.402 -0.328,0.626 -0.853,1.197 -1.571,1.719 -0.632,0.583 -1.519,1.05 -2.661,1.394 -1.185,0.411 -2.683,0.638 -4.502,0.681 -1.912,-0.043 -3.483,-0.275 -4.714,-0.688 -1.188,-0.398 -2.118,-0.933 -2.796,-1.614 -1.191,-1.381 -1.762,-2.799 -1.712,-4.247 0,-1.577 0.362,-2.86 1.089,-3.849 0.65,-0.945 1.495,-1.676 2.544,-2.203 1.121,-0.596 2.317,-1.062 3.6,-1.418 1.326,-0.325 2.627,-0.688 3.907,-1.081 3.167,-0.902 5.276,-1.779 6.325,-2.639 0.553,-0.522 0.949,-1.166 1.185,-1.939 0.206,-0.811 0.31,-1.873 0.31,-3.195 0.052,-2.188 -0.264,-3.889 -0.939,-5.092 -0.718,-1.209 -2.24,-1.811 -4.566,-1.811 -1.624,0 -2.916,0.239 -3.87,0.725 -1.043,0.549 -1.565,1.405 -1.565,2.571 0,0.773 0.102,1.511 0.31,2.21 0.095,0.688 0.138,1.259 0.138,1.719 -0.043,1.43 -0.97,2.164 -2.774,2.21 -1.525,0 -2.477,-0.282 -2.845,-0.854 -0.491,-0.503 -0.703,-1.185 -0.657,-2.038 0,-2.105 0.945,-3.86 2.845,-5.26 1.844,-1.424 4.601,-2.161 8.252,-2.204 4.349,0.043 7.378,0.964 9.087,2.769 1.667,1.848 2.477,4.021 2.431,6.524 v 16.807 c 0,1.276 0.233,2.13 0.697,2.571 0.445,0.504 1.037,0.758 1.786,0.758 1.089,0 2.188,-0.358 3.284,-1.089 l 0.595,0.73 z m -12.448,-15.812 h -0.138 c -0.092,0.595 -0.872,1.19 -2.348,1.786 l -5.398,2.013 c -3.109,1.124 -4.683,3.266 -4.729,6.433 -0.046,1.431 0.289,2.75 1.016,3.959 0.7,1.277 2.136,1.94 4.315,1.979 1.608,0 2.916,-0.34 3.922,-1.021 0.955,-0.639 1.682,-1.431 2.169,-2.376 0.869,-2.025 1.265,-4.026 1.191,-6.009 v -6.764 z" id="path15" inkscape:connector-curvature="0" style="fill:#012f5f"></path>
	<path d="m 153.738,138.439 h 5.484 v -27.117 h -5.484 v -0.921 h 11.453 v 7.064 h 0.135 c 2.167,-5.174 5.997,-7.758 11.497,-7.758 2.514,0 4.705,0.466 6.552,1.405 1.826,1.031 3.057,2.683 3.708,4.96 h 0.144 c 0.648,-1.688 1.878,-3.161 3.677,-4.432 1.78,-1.246 4.168,-1.891 7.172,-1.934 7.185,0.043 10.778,3.395 10.778,10.048 v 18.684 h 5.512 v 0.921 h -17.401 v -0.921 h 5.785 V 115.47 c -0.052,-3.186 -1.771,-4.8 -5.165,-4.85 -2.608,0 -4.965,0.829 -7.059,2.48 -2.252,1.755 -3.4,4.462 -3.45,8.117 v 17.22 h 5.789 v 0.921 h -17.65 v -0.921 h 5.789 v -22.011 c -0.098,-3.867 -1.752,-5.807 -4.944,-5.807 -1.053,0 -2.213,0.222 -3.48,0.663 -1.197,0.461 -2.341,1.209 -3.443,2.24 -1.096,0.994 -1.998,2.29 -2.707,3.897 -0.728,1.67 -1.102,3.684 -1.102,6.034 v 14.982 h 5.754 v 0.921 h -17.343 v -0.917 z" id="path17" inkscape:connector-curvature="0" style="fill:#012f5f"></path>
	<path d="m 294.94,138.661 c -0.589,0.398 -1.308,0.761 -2.167,1.093 -0.887,0.355 -1.958,0.533 -3.213,0.533 -2.207,-0.043 -3.833,-0.527 -4.865,-1.461 -1.034,-0.89 -1.737,-2.13 -2.105,-3.734 h -0.169 c -0.138,0.393 -0.375,0.862 -0.697,1.402 -0.329,0.626 -0.853,1.197 -1.571,1.719 -0.629,0.583 -1.516,1.05 -2.658,1.394 -1.191,0.411 -2.686,0.638 -4.502,0.681 -1.915,-0.043 -3.483,-0.275 -4.714,-0.688 -1.191,-0.398 -2.118,-0.933 -2.796,-1.614 -1.194,-1.381 -1.765,-2.799 -1.712,-4.247 0,-1.577 0.356,-2.86 1.083,-3.849 0.65,-0.945 1.5,-1.676 2.544,-2.203 1.124,-0.596 2.323,-1.062 3.603,-1.418 1.326,-0.325 2.63,-0.688 3.91,-1.081 3.164,-0.902 5.272,-1.779 6.322,-2.639 0.553,-0.522 0.945,-1.166 1.188,-1.939 0.206,-0.811 0.31,-1.873 0.31,-3.195 0.046,-2.188 -0.27,-3.889 -0.945,-5.092 -0.715,-1.209 -2.241,-1.811 -4.567,-1.811 -1.62,0 -2.913,0.239 -3.867,0.725 -1.047,0.549 -1.568,1.405 -1.568,2.571 0,0.773 0.101,1.511 0.31,2.21 0.098,0.688 0.141,1.259 0.141,1.719 -0.043,1.43 -0.967,2.164 -2.771,2.21 -1.531,0 -2.477,-0.282 -2.848,-0.854 -0.488,-0.503 -0.706,-1.185 -0.66,-2.038 0,-2.105 0.945,-3.86 2.845,-5.26 1.847,-1.424 4.6,-2.161 8.258,-2.204 4.346,0.043 7.372,0.964 9.084,2.769 1.667,1.848 2.477,4.021 2.431,6.524 v 16.807 c 0,1.276 0.233,2.13 0.697,2.571 0.445,0.504 1.034,0.758 1.786,0.758 1.089,0 2.188,-0.358 3.287,-1.089 l 0.596,0.73 z m -12.448,-15.812 h -0.141 c -0.092,0.595 -0.875,1.19 -2.348,1.786 l -5.398,2.013 c -3.106,1.124 -4.683,3.266 -4.729,6.433 -0.046,1.431 0.289,2.75 1.019,3.959 0.697,1.277 2.133,1.94 4.309,1.979 1.611,0 2.918,-0.34 3.925,-1.021 0.958,-0.639 1.682,-1.431 2.173,-2.376 0.865,-2.025 1.258,-4.026 1.19,-6.009 v -6.764 z" id="path19" inkscape:connector-curvature="0" style="fill:#012f5f"></path>
	<path d="m 298.163,138.439 h 5.5 v -27.117 h -5.5 v -0.921 h 11.442 v 7.23 h 0.138 c 0.279,-0.632 0.733,-1.399 1.365,-2.296 0.565,-0.89 1.296,-1.768 2.207,-2.614 0.961,-0.896 2.161,-1.608 3.612,-2.13 1.421,-0.59 3.143,-0.884 5.149,-0.884 3.247,0 5.831,0.688 7.743,2.074 1.918,1.492 2.897,3.812 2.946,6.954 v 19.703 h 5.505 v 0.921 h -17.118 v -0.921 h 5.527 V 116.63 c 0,-1.805 -0.433,-3.266 -1.304,-4.389 -0.915,-1.031 -2.299,-1.571 -4.152,-1.621 -3.195,0.05 -5.871,1.234 -8.032,3.566 -2.256,2.308 -3.403,5.315 -3.449,9.011 v 15.24 h 5.562 v 0.921 h -17.141 v -0.919 z" id="path21" inkscape:connector-curvature="0" style="fill:#012f5f"></path>
	<path clip-rule="evenodd" d="m 248.617,123.917 c 0.049,-4.174 -0.473,-7.457 -1.565,-9.852 -1.135,-2.326 -3.342,-3.517 -6.614,-3.554 -1.722,0 -3.152,0.282 -4.284,0.854 -1.185,0.596 -2.136,1.344 -2.857,2.24 -0.951,1.123 -1.589,2.627 -1.915,4.518 -0.399,1.891 -0.592,4.566 -0.592,8.034 0,1.474 0.138,2.978 0.415,4.512 0.255,1.584 0.688,3.026 1.292,4.321 1.301,2.83 3.839,4.291 7.626,4.377 1.949,0 3.523,-0.381 4.732,-1.154 1.136,-0.725 1.964,-1.749 2.477,-3.094 0.583,-1.381 0.964,-3.026 1.151,-4.941 0.091,-1.891 0.134,-3.978 0.134,-6.261 m -29.414,36.405 h 5.5 v -49 h -5.5 v -0.921 h 11.447 v 5.641 c 0.866,-1.909 2.072,-3.468 3.757,-4.665 1.66,-1.145 3.793,-1.743 6.39,-1.786 4.217,0.086 7.786,1.584 10.711,4.499 2.928,2.916 4.419,6.464 4.462,10.65 -0.092,4.21 -1.623,7.789 -4.597,10.747 -3.023,3.112 -6.718,4.714 -11.104,4.8 -1.568,-0.043 -2.903,-0.318 -3.999,-0.816 -1.151,-0.484 -2.087,-1.083 -2.814,-1.805 -1.455,-1.577 -2.292,-2.878 -2.529,-3.903 l -0.138,26.56 h 5.503 v 0.92 h -17.088 v -0.921 z" id="path23" inkscape:connector-curvature="0" style="fill:#012f5f;fill-rule:evenodd"></path>
	<path d="m 346.323,94.617 c 0,-1.531 0.564,-2.789 1.7,-3.771 1.136,-0.945 2.443,-1.452 3.922,-1.517 1.621,0.064 2.965,0.571 4.033,1.517 0.957,0.982 1.491,2.24 1.596,3.771 -0.104,1.402 -0.639,2.643 -1.596,3.723 -1.068,1.081 -2.412,1.614 -4.033,1.614 -1.479,0 -2.786,-0.533 -3.922,-1.614 -1.135,-1.081 -1.7,-2.321 -1.7,-3.723 m -2.842,43.822 h 5.506 v -27.117 h -5.506 v -0.921 h 11.589 v 28.038 h 5.506 v 0.921 h -17.095 v -0.921 z" id="path25" inkscape:connector-curvature="0" style="fill:#012f5f"></path>
	<path d="m 397.312,138.661 c -0.583,0.398 -1.301,0.761 -2.16,1.093 -0.891,0.355 -1.964,0.533 -3.217,0.533 -2.203,-0.043 -3.83,-0.527 -4.867,-1.461 -1.031,-0.89 -1.73,-2.13 -2.1,-3.734 h -0.172 c -0.135,0.393 -0.374,0.862 -0.693,1.402 -0.331,0.626 -0.859,1.197 -1.571,1.719 -0.632,0.583 -1.522,1.05 -2.664,1.394 -1.185,0.411 -2.682,0.638 -4.499,0.681 -1.908,-0.043 -3.486,-0.275 -4.714,-0.688 -1.19,-0.398 -2.117,-0.933 -2.793,-1.614 -1.196,-1.381 -1.768,-2.799 -1.712,-4.247 0,-1.577 0.355,-2.86 1.086,-3.849 0.645,-0.945 1.492,-1.676 2.541,-2.203 1.123,-0.596 2.32,-1.062 3.598,-1.418 1.331,-0.325 2.633,-0.688 3.916,-1.081 3.16,-0.902 5.266,-1.779 6.321,-2.639 0.553,-0.522 0.945,-1.166 1.185,-1.939 0.203,-0.811 0.308,-1.873 0.308,-3.195 0.055,-2.188 -0.265,-3.889 -0.939,-5.092 -0.718,-1.209 -2.24,-1.811 -4.566,-1.811 -1.627,0 -2.916,0.239 -3.867,0.725 -1.043,0.549 -1.565,1.405 -1.565,2.571 0,0.773 0.099,1.511 0.308,2.21 0.098,0.688 0.141,1.259 0.141,1.719 -0.043,1.43 -0.97,2.164 -2.774,2.21 -1.528,0 -2.479,-0.282 -2.848,-0.854 -0.485,-0.503 -0.706,-1.185 -0.657,-2.038 0,-2.105 0.945,-3.86 2.842,-5.26 1.848,-1.424 4.604,-2.161 8.256,-2.204 4.352,0.043 7.378,0.964 9.091,2.769 1.663,1.848 2.474,4.021 2.431,6.524 v 16.807 c 0,1.276 0.233,2.13 0.699,2.571 0.442,0.504 1.031,0.758 1.78,0.758 1.093,0 2.191,-0.358 3.29,-1.089 l 0.585,0.73 z M 384.87,122.849 h -0.142 c -0.092,0.595 -0.877,1.19 -2.351,1.786 l -5.396,2.013 c -3.105,1.124 -4.683,3.266 -4.732,6.433 -0.049,1.431 0.289,2.75 1.02,3.959 0.699,1.277 2.13,1.94 4.309,1.979 1.614,0 2.922,-0.34 3.929,-1.021 0.951,-0.639 1.682,-1.431 2.166,-2.376 0.872,-2.025 1.265,-4.026 1.197,-6.009 v -6.764 z" id="path27" inkscape:connector-curvature="0" style="fill:#012f5f"></path>
	<path clip-rule="evenodd" d="m 141.312,148.383 c -1.636,-0.344 -3.314,-0.596 -5.202,-0.596 -4.739,0 -7.12,3.1 -7.12,6.844 0,3.726 2.357,6.819 7.12,6.819 2.035,0 3.609,-0.233 5.202,-1.024 v -1.492 c -1.507,0.736 -2.971,1.222 -5.202,1.222 -3.741,0 -4.951,-2.842 -4.951,-5.524 0,-2.7 1.209,-5.549 4.951,-5.549 2.035,0 3.652,0.485 5.202,0.937 v -1.637 z" id="path29" inkscape:connector-curvature="0" style="fill:#012f5f;fill-rule:evenodd"></path>
	<polygon clip-rule="evenodd" points="153.692,159.831 146.83,159.831 146.83,154.988 152.225,154.988 152.225,153.693 146.83,153.693 146.83,149.405 153.244,149.405 153.244,148.113 144.792,148.113 144.792,161.125 153.692,161.125 " id="polygon31" style="fill:#012f5f;fill-rule:evenodd"></polygon>
	<polygon clip-rule="evenodd" points="158.299,150.85 158.342,150.85 166.143,161.125 168.181,161.125 168.181,148.113 166.395,148.113 166.395,158.394 166.352,158.394 158.575,148.113 156.516,148.113 156.516,161.125 158.299,161.125 " id="polygon33" style="fill:#012f5f;fill-rule:evenodd"></polygon>
	<polygon clip-rule="evenodd" points="178.158,149.405 183.597,149.405 183.597,148.113 170.685,148.113 170.685,149.405 176.121,149.405 176.121,161.125 178.158,161.125 " id="polygon35" style="fill:#012f5f;fill-rule:evenodd"></polygon>
	<path clip-rule="evenodd" d="m 186.122,161.125 h 2.041 v -5.524 h 2.081 l 4.438,5.524 h 2.529 l -5.119,-6.083 c 1.765,-0.521 3.143,-2.05 3.143,-3.652 0,-2.577 -2.566,-3.277 -4.14,-3.277 h -4.972 v 13.012 z m 2.041,-11.717 h 2.02 c 1.679,0 2.888,0.773 2.888,2.032 0,1.909 -1.467,2.866 -4.039,2.866 -0.294,0 -0.592,-0.037 -0.869,-0.073 v -4.825 z" id="path37" inkscape:connector-curvature="0" style="fill:#012f5f;fill-rule:evenodd"></path>
	<path clip-rule="evenodd" d="m 206,161.451 c 4.742,0 7.099,-3.094 7.099,-6.819 0,-3.744 -2.357,-6.844 -7.099,-6.844 -4.739,0 -7.114,3.1 -7.114,6.844 0,3.725 2.357,6.819 7.114,6.819 m 0,-1.295 c -3.735,0 -4.944,-2.842 -4.944,-5.524 0,-2.7 1.209,-5.549 4.944,-5.549 3.723,0 4.929,2.849 4.929,5.549 0,2.682 -1.206,5.524 -4.929,5.524" id="path39" inkscape:connector-curvature="0" style="fill:#012f5f;fill-rule:evenodd"></path>
	<path clip-rule="evenodd" d="m 253.785,148.383 c -1.636,-0.344 -3.314,-0.596 -5.202,-0.596 -4.742,0 -7.12,3.1 -7.12,6.844 0,3.726 2.36,6.819 7.12,6.819 2.035,0 3.606,-0.233 5.202,-1.024 v -1.492 c -1.507,0.736 -2.971,1.222 -5.202,1.222 -3.741,0 -4.947,-2.842 -4.947,-5.524 0,-2.7 1.206,-5.549 4.947,-5.549 2.035,0 3.652,0.485 5.202,0.937 v -1.637 z" id="path41" inkscape:connector-curvature="0" style="fill:#012f5f;fill-rule:evenodd"></path>
	<path clip-rule="evenodd" d="m 264.195,161.451 c 4.742,0 7.099,-3.094 7.099,-6.819 0,-3.744 -2.357,-6.844 -7.099,-6.844 -4.738,0 -7.117,3.1 -7.117,6.844 0,3.725 2.357,6.819 7.117,6.819 m 0,-1.295 c -3.735,0 -4.947,-2.842 -4.947,-5.524 0,-2.7 1.212,-5.549 4.947,-5.549 3.723,0 4.929,2.849 4.929,5.549 0,2.682 -1.207,5.524 -4.929,5.524" id="path43" inkscape:connector-curvature="0" style="fill:#012f5f;fill-rule:evenodd"></path>
	<polygon clip-rule="evenodd" points="276.367,150.396 276.41,150.396 280.553,160.266 282.597,160.266 286.841,150.396 286.884,150.396 286.884,161.125 288.796,161.125 288.796,148.113 286.224,148.113 281.808,158.357 281.762,158.357 277.472,148.113 274.581,148.113 274.581,161.125 276.367,161.125 " id="polygon45" style="fill:#012f5f;fill-rule:evenodd"></polygon>
	<polygon clip-rule="evenodd" points="293.872,150.396 293.915,150.396 298.059,160.266 300.103,160.266 304.347,150.396 304.39,150.396 304.39,161.125 306.302,161.125 306.302,148.113 303.729,148.113 299.313,158.357 299.271,158.357 294.977,148.113 292.092,148.113 292.092,161.125 293.872,161.125 " id="polygon47" style="fill:#012f5f;fill-rule:evenodd"></polygon>
	<polygon clip-rule="evenodd" points="318.495,159.831 311.633,159.831 311.633,154.988 317.028,154.988 317.028,153.693 311.633,153.693 311.633,149.405 318.05,149.405 318.05,148.113 309.598,148.113 309.598,161.125 318.495,161.125 " id="polygon49" style="fill:#012f5f;fill-rule:evenodd"></polygon>
	<path clip-rule="evenodd" d="m 321.791,161.125 h 2.035 v -5.524 h 2.084 l 4.44,5.524 h 2.529 l -5.119,-6.083 c 1.765,-0.521 3.143,-2.05 3.143,-3.652 0,-2.577 -2.569,-3.277 -4.141,-3.277 h -4.972 v 13.012 z m 2.035,-11.717 h 2.022 c 1.679,0 2.891,0.773 2.891,2.032 0,1.909 -1.467,2.866 -4.042,2.866 -0.294,0 -0.595,-0.037 -0.871,-0.073 v -4.825 z" id="path51" inkscape:connector-curvature="0" style="fill:#012f5f;fill-rule:evenodd"></path>
	<path clip-rule="evenodd" d="m 348.496,148.383 c -1.639,-0.344 -3.32,-0.596 -5.205,-0.596 -4.738,0 -7.12,3.1 -7.12,6.844 0,3.726 2.357,6.819 7.12,6.819 2.032,0 3.609,-0.233 5.205,-1.024 v -1.492 c -1.51,0.736 -2.977,1.222 -5.205,1.222 -3.744,0 -4.953,-2.842 -4.953,-5.524 0,-2.7 1.209,-5.549 4.953,-5.549 2.032,0 3.652,0.485 5.205,0.937 v -1.637 z" id="path53" inkscape:connector-curvature="0" style="fill:#012f5f;fill-rule:evenodd"></path>
	<rect x="351.78601" y="148.11" clip-rule="evenodd" width="2.0380001" height="13.016" id="rect55" style="fill:#012f5f;fill-rule:evenodd"></rect>
	<path clip-rule="evenodd" d="m 357.114,161.125 h 1.792 l 1.719,-3.688 h 6.752 l 1.749,3.688 h 2.186 l -6.077,-13.013 h -2.044 l -6.077,13.013 z m 4.124,-4.984 2.763,-5.941 2.786,5.941 h -5.549 z" id="path57" inkscape:connector-curvature="0" style="fill:#012f5f;fill-rule:evenodd"></path>
	<polygon clip-rule="evenodd" points="383.568,159.831 376.639,159.831 376.639,148.113 374.602,148.113 374.602,161.125 383.568,161.125 " id="polygon59" style="fill:#012f5f;fill-rule:evenodd"></polygon>
	<polygon clip-rule="evenodd" points="395.759,159.831 388.896,159.831 388.896,154.988 394.292,154.988 394.292,153.693 388.896,153.693 388.896,149.405 395.317,149.405 395.317,148.113 386.858,148.113 386.858,161.125 395.759,161.125 " id="polygon61" style="fill:#012f5f;fill-rule:evenodd"></polygon>
</g>
</svg>